<svg xmlns="http://www.w3.org/2000/svg" viewBox="0 0 140 140" role="img" aria-label="Meaty Blog — Prime Cuts">
  <!-- Master inspection-stamp lockup: marbled-DB icon inside the ring,
       "MEATY BLOG" curved top / "PRIME CUTS" bottom. For header, OG, sign-off.
       NOTE: curved text is live (font Oswald) — render with Oswald loaded. -->
  <title>Meaty Blog — Prime Cuts</title>
  <defs>
    <path id="arc-top" d="M22,70 A48,48 0 0 1 118,70" fill="none"/>
    <path id="arc-bot" d="M26,70 A44,44 0 0 0 114,70" fill="none"/>
  </defs>
  <circle cx="70" cy="70" r="60" fill="none" stroke="#9e2b25" stroke-width="3"/>
  <circle cx="70" cy="70" r="46" fill="none" stroke="#9e2b25" stroke-width="1.4" stroke-dasharray="3 3"/>
  <text font-family="Oswald, 'Arial Narrow', sans-serif" font-weight="700" font-size="13" letter-spacing="2.5" fill="#9e2b25">
    <textPath href="#arc-top" startOffset="50%" text-anchor="middle">MEATY BLOG</textPath>
  </text>
  <text font-family="Oswald, 'Arial Narrow', sans-serif" font-weight="600" font-size="9" letter-spacing="2.5" fill="#9e2b25">
    <textPath href="#arc-bot" startOffset="50%" text-anchor="middle">PRIME CUTS</textPath>
  </text>
  <g transform="translate(70,72) scale(0.62) translate(-60,-60)">
    <rect x="24" y="36" width="72" height="48" fill="#9e2b25"/>
    <ellipse cx="60" cy="36" rx="36" ry="13" fill="#9e2b25"/>
    <ellipse cx="60" cy="84" rx="36" ry="13" fill="#9e2b25"/>
    <ellipse cx="60" cy="36" rx="36" ry="13" fill="none" stroke="#ece1d0" stroke-width="3"/>
    <path d="M26,61 q17,-7 34,0 t34,0" fill="none" stroke="#ece1d0" stroke-width="3.4"/>
    <path d="M26,69 q17,-7 34,0 t34,0" fill="none" stroke="#ece1d0" stroke-width="3.4"/>
  </g>
</svg>
